<?xml version="1.0" encoding="UTF-8"?>
<svg width="700pt" height="700pt" version="1.1" viewBox="0 0 700 700" xmlns="http://www.w3.org/2000/svg">
 <path d="m162.01 0h375.98c50.613 0 92.008 41.395 92.008 92.008v375.98c0 50.613-41.395 92.008-92.008 92.008h-375.98c-50.613 0-92.008-41.395-92.008-92.008v-375.98c0-50.613 41.395-92.008 92.008-92.008zm-11.367 252.22c15.945-15.957 42.102-15.957 58.059 0l74.977 74.996c43.996-35.641 132.62-105.32 233.84-184.79 30.988-24.539 60.188 7.6484 33.152 34.074l-237.93 237.83c-16.148 16.16-41.754 15.824-58.066 0l-104.02-104.03c-15.988-15.965-15.988-42.102 0-58.078z" fill-rule="evenodd"/>
</svg>
